<?xml version="1.0" standalone="no"?>
<!DOCTYPE svg PUBLIC "-//W3C//DTD SVG 20010904//EN"
 "http://www.w3.org/TR/2001/REC-SVG-20010904/DTD/svg10.dtd">
<svg version="1.0" xmlns="http://www.w3.org/2000/svg"
 width="640.000000pt" height="640.000000pt" viewBox="0 0 640.000000 640.000000"
 preserveAspectRatio="xMidYMid meet">

<g transform="translate(0.000000,640.000000) scale(0.100000,-0.100000)"
fill="#000000" stroke="none">
<path d="M2186 4793 c-17 -3 -25 -8 -18 -12 6 -3 8 -12 3 -19 -5 -9 -12 -8
-27 6 -17 16 -26 17 -79 7 -50 -8 -60 -13 -60 -30 0 -24 13 -35 42 -35 16 0
21 4 17 15 -4 9 0 15 7 16 8 0 5 4 -6 9 -18 8 -17 9 7 9 14 1 33 4 42 7 9 3
16 1 16 -5 0 -6 -9 -11 -19 -11 -13 0 -18 -6 -17 -17 2 -10 8 -18 14 -17 7 1
23 2 36 3 15 0 27 9 31 20 9 28 36 35 42 11 6 -21 39 -28 45 -8 3 8 9 8 24 0
15 -8 23 -7 37 6 14 13 20 13 26 4 10 -17 107 -26 116 -12 5 8 11 8 20 0 8 -6
33 -13 57 -15 79 -6 143 -16 163 -25 11 -5 45 -16 75 -25 30 -9 69 -23 85 -30
17 -7 48 -20 70 -30 22 -9 49 -22 60 -28 69 -37 77 -40 87 -26 7 11 8 10 6 -3
-2 -12 21 -31 82 -66 47 -27 87 -48 89 -46 2 2 -4 13 -14 24 -10 11 -15 20
-10 20 4 0 2 7 -5 15 -8 9 -8 15 -2 15 6 0 12 -5 14 -11 2 -6 12 -10 23 -8 14
3 6 11 -30 29 -28 14 -53 29 -57 35 -4 5 -11 6 -15 1 -4 -5 -3 -11 3 -13 6 -2
19 -10 29 -17 16 -12 14 -13 -19 -11 -34 2 -65 15 -36 15 9 0 8 6 -5 20 -14
15 -15 20 -4 20 8 0 3 6 -11 13 -14 8 -34 18 -45 24 -45 25 -118 54 -122 49
-3 -3 -2 -13 1 -23 5 -12 9 -14 14 -6 5 8 15 3 32 -15 22 -22 22 -25 5 -18
-11 5 -32 12 -47 18 -15 5 -27 13 -27 16 6 43 -8 59 -60 68 -7 2 -18 7 -23 12
-7 7 -21 4 -42 -8 -23 -12 -38 -15 -49 -8 -29 16 -20 31 16 24 50 -9 11 10
-55 27 -57 15 -58 15 -58 -6 0 -16 -3 -18 -9 -9 -4 8 -11 13 -15 13 -16 -2
-18 0 -7 13 9 11 6 15 -13 18 -16 3 -27 0 -31 -10 -3 -10 0 -12 10 -8 18 7 19
-1 2 -18 -15 -16 -35 1 -31 26 2 17 -42 32 -52 17 -3 -5 -1 -9 4 -9 5 0 12
-10 15 -21 4 -17 3 -19 -6 -10 -14 14 -30 15 -22 1 10 -16 -1 -11 -16 7 -10
11 -10 14 -1 9 6 -4 12 -2 12 3 0 6 -6 11 -14 11 -8 0 -17 6 -19 13 -4 9 -8 8
-16 -3 -7 -10 -11 -11 -11 -2 0 9 -24 12 -85 12 -63 0 -84 -3 -82 -12 1 -8
-10 -14 -28 -15 -16 -1 -24 0 -17 3 12 6 7 25 -6 23 -4 -1 -20 -4 -36 -6z
m129 -23 c-3 -5 -14 -10 -23 -10 -15 0 -15 2 -2 10 20 13 33 13 25 0z m59 -5
c-4 -8 -8 -15 -10 -15 -2 0 -4 7 -4 15 0 8 4 15 10 15 5 0 7 -7 4 -15z m80 6
c31 -2 12 -11 -28 -14 -22 -2 -36 1 -36 8 0 6 10 11 23 9 12 -1 31 -3 41 -3z
m-414 -25 c0 -3 -4 -8 -10 -11 -5 -3 -10 -1 -10 4 0 6 5 11 10 11 6 0 10 -2
10 -4z m794 -61 c-4 -8 -11 -12 -16 -9 -6 4 -5 10 3 15 19 12 19 11 13 -6z
m36 -5 c0 -5 -2 -10 -4 -10 -3 0 -8 5 -11 10 -3 6 -1 10 4 10 6 0 11 -4 11
-10z m35 -8 c-3 -3 -11 0 -18 7 -9 10 -8 11 6 5 10 -3 15 -9 12 -12z m5 -22
c8 -5 11 -10 5 -10 -5 0 -17 5 -25 10 -8 5 -10 10 -5 10 6 0 17 -5 25 -10z
m151 -58 c5 -13 4 -22 -1 -22 -6 0 -10 7 -10 16 0 8 -4 12 -10 9 -5 -3 -10 1
-10 10 0 23 21 14 31 -13z m34 -2 c3 -5 2 -10 -4 -10 -5 0 -13 5 -16 10 -3 6
-2 10 4 10 5 0 13 -4 16 -10z m35 -40 c0 -5 -7 -10 -16 -10 -8 0 -12 5 -9 10
3 6 10 10 16 10 5 0 9 -4 9 -10z m80 -50 c8 -5 11 -10 5 -10 -5 0 -17 5 -25
10 -8 5 -10 10 -5 10 6 0 17 -5 25 -10z"/>
<path d="M1933 4753 c-22 -8 -14 -33 13 -43 32 -13 67 -13 59 0 -3 5 -13 6
-23 3 -14 -5 -14 -3 2 9 33 26 -6 50 -51 31z m42 -13 c3 -6 -1 -13 -10 -16
-19 -8 -30 0 -20 15 8 14 22 14 30 1z"/>
<path d="M1831 4711 c-11 -11 -21 -16 -23 -11 -4 13 -78 -14 -106 -39 -13 -12
-28 -19 -33 -15 -5 3 -9 0 -9 -6 0 -6 -10 -14 -22 -19 l-22 -8 23 -13 c18 -9
25 -9 31 0 6 9 9 9 12 -1 4 -11 15 -9 54 11 60 29 173 70 197 70 9 0 17 5 17
10 0 6 -9 10 -19 10 -10 0 -21 7 -25 15 -3 8 -11 15 -18 15 -8 0 -9 -3 -3 -8
13 -9 18 -42 7 -42 -15 0 -34 28 -27 40 11 17 -14 11 -34 -9z m28 -40 c-15 -5
-22 6 -14 19 6 9 10 9 16 -1 5 -8 4 -15 -2 -18z m-92 -13 c-13 -13 -30 -22
-37 -20 -7 3 -10 0 -6 -6 3 -6 2 -13 -4 -17 -5 -3 -10 -2 -10 3 0 5 -12 8 -27
6 -25 -3 -25 -2 5 8 17 6 32 18 32 26 0 9 7 13 20 9 10 -3 25 1 31 9 7 8 14
13 16 10 2 -2 -7 -15 -20 -28z m58 12 c-3 -5 -11 -10 -16 -10 -6 0 -7 5 -4 10
3 6 11 10 16 10 6 0 7 -4 4 -10z"/>
<path d="M1548 4579 c-35 -26 -35 -34 -2 -37 24 -2 25 0 13 16 -11 14 -11 15
1 5 20 -18 35 -16 20 2 -9 10 -9 15 -1 15 6 0 11 5 11 10 0 15 -12 12 -42 -11z"/>
<path d="M1605 4590 c3 -5 1 -10 -4 -10 -6 0 -11 -5 -11 -11 0 -6 7 -9 15 -5
25 9 17 -1 -17 -22 -24 -16 -37 -18 -56 -11 -19 8 -28 6 -41 -8 -22 -24 -38
-61 -45 -102 -5 -29 -4 -32 9 -21 15 13 20 5 16 -27 -3 -22 9 -14 21 15 16 35
16 86 1 92 -8 4 -6 11 6 26 15 19 18 19 31 6 13 -14 12 -15 -2 -9 -13 4 -16 0
-16 -22 l1 -27 45 43 c25 24 58 51 73 59 34 17 37 24 9 17 -14 -4 -20 0 -20
11 0 9 -5 16 -11 16 -5 0 -7 -4 -4 -10z m-123 -135 c0 -5 -5 -11 -11 -13 -6
-2 -11 4 -11 13 0 9 5 15 11 13 6 -2 11 -8 11 -13z m13 -25 c-3 -5 -11 -10
-16 -10 -6 0 -7 5 -4 10 3 6 11 10 16 10 6 0 7 -4 4 -10z"/>
<path d="M3293 4476 c3 -8 -1 -20 -9 -27 -10 -8 -12 -15 -5 -22 7 -7 17 -3 30
12 12 13 22 18 26 11 3 -5 1 -10 -6 -10 -8 0 -9 -4 0 -13 7 -10 7 -17 0 -24
-15 -15 23 -35 59 -31 19 2 26 -1 24 -11 -2 -8 3 -18 10 -22 10 -7 10 -11 0
-21 -10 -10 -14 -8 -18 10 -4 12 -10 22 -15 22 -13 0 -12 -4 26 -60 19 -29 35
-57 35 -62 0 -6 6 -5 15 2 17 14 50 6 40 -10 -5 -7 -11 -8 -19 -1 -8 7 -12 3
-14 -14 -1 -13 3 -27 8 -30 6 -3 10 0 10 8 0 19 19 26 53 20 19 -4 27 -11 27
-27 0 -17 -2 -18 -10 -6 -5 8 -10 11 -10 5 0 -31 17 -32 72 -5 32 15 59 25 61
23 8 -7 58 17 53 26 -10 15 22 21 34 6 7 -8 15 -13 19 -11 3 2 40 7 81 10 41
4 80 12 86 17 7 6 15 6 18 1 7 -12 76 -14 76 -2 0 5 -7 7 -15 4 -9 -4 -15 0
-15 10 0 9 -4 16 -10 16 -5 0 -10 -7 -10 -15 0 -17 -16 -20 -25 -6 -3 6 4 15
15 21 29 16 25 30 -10 30 -16 0 -30 -4 -30 -10 0 -5 -13 -7 -30 -3 -20 3 -30
1 -30 -6 0 -8 -8 -10 -22 -6 -21 6 -22 5 -6 -8 10 -8 15 -17 11 -20 -3 -4 -13
2 -21 14 -12 17 -21 19 -60 14 -92 -12 -151 -26 -192 -46 -42 -20 -75 -22 -75
-4 -1 6 -9 25 -19 44 -15 28 -22 32 -47 29 -20 -3 -29 0 -29 9 0 8 5 11 10 8
6 -3 15 -3 20 0 13 8 -19 65 -37 65 -7 0 -13 7 -13 15 0 14 -3 14 -25 -1 -29
-19 -53 -10 -34 12 7 8 18 13 26 10 7 -3 13 -1 13 4 0 6 -3 10 -7 10 -5 0 -22
14 -40 30 -34 32 -59 40 -50 16z m193 -210 c2 -14 0 -15 -12 -5 -17 14 -19 32
-2 27 6 -2 12 -12 14 -22z m428 -2 c3 -8 2 -12 -4 -9 -6 3 -10 10 -10 16 0 14
7 11 14 -7z m-84 -11 c0 -12 -8 -18 -25 -19 -14 -1 -25 2 -25 8 0 5 4 7 9 4 5
-3 11 1 15 9 8 21 26 19 26 -2z m120 7 c0 -5 -4 -10 -10 -10 -5 0 -10 5 -10
10 0 6 5 10 10 10 6 0 10 -4 10 -10z m-229 -31 c-11 -12 -25 -19 -33 -16 -9 4
-8 6 3 6 9 1 19 8 23 16 3 8 10 15 16 15 6 0 2 -9 -9 -21z m-38 -7 c-10 -11
-22 -17 -26 -15 -11 7 13 33 29 33 11 0 10 -5 -3 -18z m-39 -17 c3 -8 1 -15
-3 -15 -5 0 -11 7 -15 15 -3 8 -1 15 3 15 5 0 11 -7 15 -15z m-30 -3 c2 -4 -4
-9 -15 -9 -10 -1 -19 2 -19 8 0 11 27 12 34 1z"/>
<path d="M1401 4366 c-16 -29 -6 -49 19 -41 10 3 21 1 24 -4 4 -5 -3 -12 -14
-16 -11 -4 -18 -10 -15 -15 6 -10 -23 -35 -32 -26 -3 3 2 14 11 25 11 12 14
21 7 26 -16 9 -31 -3 -24 -20 3 -10 -1 -15 -12 -15 -15 0 -15 -1 -1 -16 21
-20 20 -23 -4 -17 -23 6 -25 -4 -6 -29 20 -27 42 -21 57 15 7 17 21 44 31 59
20 29 22 46 9 67 -8 13 -12 13 -27 0 -16 -13 -16 -12 -5 9 6 12 8 22 3 22 -5
0 -14 -11 -21 -24z"/>
<path d="M4032 4283 c2 -10 11 -17 21 -17 9 1 17 -4 17 -12 0 -18 18 -18 35 0
12 12 12 16 1 25 -7 6 -16 8 -19 4 -4 -3 -7 -1 -7 5 0 7 -12 12 -26 12 -19 0
-25 -4 -22 -17z"/>
<path d="M4134 4281 c0 -14 4 -17 12 -11 6 6 14 6 19 2 4 -4 6 0 3 8 -7 23
-34 24 -34 1z"/>
<path d="M4187 4293 c-4 -3 -1 -13 6 -21 9 -13 9 -14 0 -8 -8 4 -13 2 -13 -7
0 -9 13 -14 40 -15 22 -1 43 -2 47 -3 22 -4 53 2 53 10 0 15 -33 22 -42 9 -6
-10 -8 -10 -8 1 0 8 -3 11 -7 8 -3 -4 -12 2 -20 13 -17 25 -37 26 -29 3 6 -17
5 -17 -7 -1 -8 10 -17 15 -20 11z"/>
<path d="M4250 4289 c0 -6 16 -9 38 -7 32 3 37 0 40 -21 3 -18 8 -22 28 -18
13 2 27 0 30 -4 7 -12 24 -11 24 1 0 6 -3 9 -7 8 -5 -2 -9 1 -10 7 -1 5 -10
12 -20 16 -15 6 -14 8 7 8 14 0 35 -10 48 -23 21 -22 21 -25 5 -29 -11 -3 -7
-6 12 -7 17 -1 44 -3 62 -5 23 -2 30 1 26 11 -7 18 14 18 24 0 4 -8 22 -17 38
-21 l30 -7 -25 21 c-14 11 -20 21 -15 21 6 0 3 5 -5 10 -10 7 -11 10 -2 10 7
0 15 -6 18 -14 3 -8 13 -12 23 -9 11 3 21 -2 24 -11 4 -9 1 -16 -6 -16 -7 0
-3 -7 7 -15 10 -8 23 -12 27 -9 5 3 17 0 28 -6 13 -7 22 -7 26 0 12 19 55 11
65 -12 5 -13 9 -19 9 -15 1 5 14 -1 29 -12 16 -11 41 -23 58 -27 16 -4 34 -11
41 -16 14 -11 36 -1 28 12 -3 5 -1 11 5 15 6 4 13 -7 16 -24 5 -22 12 -31 26
-31 10 0 16 5 13 10 -4 6 -10 8 -14 6 -3 -3 -7 4 -7 15 0 14 5 18 21 13 20 -5
20 -5 1 10 -11 9 -28 16 -38 16 -10 0 -18 4 -18 9 0 5 -10 11 -22 14 -23 6
-23 6 -3 -9 17 -13 18 -16 5 -24 -23 -15 -43 -12 -36 5 7 18 -10 20 -18 3 -3
-10 -9 -8 -19 4 -8 10 -16 16 -19 13 -2 -3 -5 2 -5 10 0 11 4 12 11 5 12 -12
46 -13 46 -1 0 18 -156 65 -166 50 -8 -14 -71 -11 -77 4 -3 7 3 13 13 13 10 0
17 -3 14 -7 -2 -4 8 -6 21 -6 54 0 14 23 -55 32 -8 1 -22 5 -30 8 -8 3 -36 7
-62 10 -39 4 -48 2 -49 -12 0 -11 -3 -9 -9 7 -5 12 -14 22 -20 22 -12 0 -12 2
-1 -38 9 -30 8 -31 -11 -21 -15 8 -18 17 -14 35 6 22 3 24 -31 25 -21 0 -68 2
-105 4 -44 3 -68 1 -68 -6z m574 -106 c3 -7 -1 -13 -8 -13 -8 0 -16 6 -19 13
-3 8 1 14 9 14 7 0 15 -6 18 -14z"/>
<path d="M4138 4243 c6 -2 18 -2 25 0 6 3 1 5 -13 5 -14 0 -19 -2 -12 -5z"/>
<path d="M3750 4221 c0 -5 5 -13 10 -16 6 -3 10 -2 10 4 0 5 -4 13 -10 16 -5
3 -10 2 -10 -4z"/>
<path d="M1316 4204 c-9 -23 -8 -27 9 -20 8 3 15 2 15 -3 0 -5 9 -11 20 -14
27 -7 25 10 -2 34 -28 23 -34 23 -42 3z"/>
<path d="M4755 4170 c-3 -6 1 -7 9 -4 18 7 21 14 7 14 -6 0 -13 -4 -16 -10z"/>
<path d="M1292 4150 c-6 -11 -12 -25 -12 -32 0 -7 -9 -24 -19 -37 -10 -13 -16
-32 -14 -42 3 -11 -1 -21 -11 -25 -9 -3 -16 -15 -16 -26 0 -11 -7 -27 -16 -36
-15 -15 -14 -17 15 -31 37 -17 42 -14 46 34 3 32 2 35 -17 29 -18 -5 -19 -4
-7 9 8 8 23 13 35 11 19 -4 36 16 43 51 2 6 7 16 13 23 6 6 7 12 3 12 -5 0 -1
8 7 18 22 25 31 43 21 41 -20 -3 -34 2 -28 11 3 6 -2 10 -12 10 -10 0 -24 -9
-31 -20z m14 -36 c-4 -9 -9 -15 -11 -12 -3 3 -3 13 1 22 4 9 9 15 11 12 3 -3
3 -13 -1 -22z m4 -44 c0 -5 -5 -10 -10 -10 -6 0 -10 -6 -9 -12 3 -25 -1 -35
-15 -35 -8 0 -13 10 -12 23 0 12 4 20 7 18 4 -2 9 3 13 11 6 17 26 21 26 5z
m-61 -122 c0 -13 -3 -18 -5 -11 -3 7 -13 10 -22 7 -14 -5 -13 -2 2 10 25 21
26 20 25 -6z"/>
<path d="M5040 4102 c0 -10 26 -34 50 -47 13 -8 13 -7 1 8 -11 14 -11 17 0 17
9 1 8 5 -5 15 -22 16 -46 20 -46 7z"/>
<path d="M5037 4066 c-4 -9 -2 -16 4 -16 6 0 29 -13 52 -28 56 -38 81 -47 73
-27 -4 13 -2 14 14 5 16 -9 18 -8 14 5 -8 19 10 20 26 0 9 -11 10 -15 1 -15
-7 0 -11 -10 -9 -22 2 -13 10 -23 18 -23 8 0 21 -8 28 -17 7 -10 22 -18 32
-18 10 0 21 -6 23 -12 3 -8 6 -7 6 4 1 9 5 19 10 22 4 3 7 -8 5 -24 -3 -25 -1
-28 10 -18 14 13 10 44 -7 66 -9 11 -12 9 -19 -8 -10 -28 -31 -14 -24 16 4 14
2 24 -4 24 -6 0 -26 11 -43 24 -18 13 -53 35 -79 49 -47 26 -48 26 -58 7 -8
-15 -8 -20 2 -21 7 -1 23 -3 36 -4 12 -1 26 -6 30 -10 4 -5 -1 -5 -10 -2 -10
4 -18 2 -18 -4 0 -11 -90 37 -101 53 -3 6 -9 3 -12 -6z m208 -95 c-3 -6 -11
-11 -17 -11 -6 0 -6 6 2 15 14 17 26 13 15 -4z m29 -16 c-4 -8 -8 -15 -10 -15
-2 0 -4 7 -4 15 0 8 4 15 10 15 5 0 7 -7 4 -15z"/>
<path d="M1188 3912 c-10 -2 -18 -8 -18 -14 0 -6 8 -8 18 -6 13 4 18 0 17 -13
-2 -27 -12 -34 -30 -19 -13 11 -19 3 -46 -56 -37 -80 -46 -149 -21 -159 8 -3
20 -1 26 5 7 7 5 10 -7 10 -9 0 -17 5 -17 11 0 6 9 8 23 3 12 -3 19 -3 15 1
-4 4 2 22 13 41 15 27 16 34 4 34 -17 0 -16 40 2 58 7 7 13 9 13 4 0 -6 3 -19
6 -29 5 -15 4 -16 -6 -3 -8 10 -10 11 -8 2 5 -21 23 -9 23 15 -1 12 3 19 7 17
4 -3 8 2 8 10 0 9 5 16 10 16 6 0 8 11 4 26 -5 19 -3 25 4 20 8 -4 10 -2 6 8
-7 17 -23 24 -46 18z m-15 -88 c-26 -19 -35 -17 -23 6 6 11 16 17 25 13 13 -5
13 -7 -2 -19z m-33 -74 c0 -5 1 -13 3 -17 1 -3 -6 -7 -15 -9 -20 -3 -20 -2
-12 20 7 18 24 22 24 6z m0 -44 c0 -2 -7 -6 -15 -10 -8 -3 -15 -1 -15 4 0 6 7
10 15 10 8 0 15 -2 15 -4z"/>
<path d="M5387 3899 c7 -7 15 -10 18 -7 3 3 -2 9 -12 12 -14 6 -15 5 -6 -5z"/>
<path d="M5363 3866 c-8 -10 -9 -16 0 -25 15 -15 23 -14 41 5 9 9 16 11 16 4
0 -6 5 -8 13 -4 9 6 8 3 -1 -8 -8 -9 -20 -14 -28 -11 -10 4 -12 0 -8 -11 3 -9
14 -16 23 -16 27 0 64 -24 67 -43 1 -9 -2 -15 -7 -11 -5 3 -7 9 -4 14 5 8 -25
24 -32 16 -10 -9 40 -53 55 -49 10 2 23 -5 30 -18 13 -20 12 -21 -4 -15 -15 6
-13 1 6 -20 58 -64 58 -64 84 -54 13 5 27 6 30 3 3 -4 6 -1 6 5 0 22 -56 72
-83 74 -25 2 -40 18 -17 18 14 0 12 13 -4 35 -11 15 -17 17 -28 7 -12 -9 -15
-9 -15 3 0 8 5 15 11 15 5 0 -3 13 -19 30 -26 27 -29 28 -42 12 -13 -15 -14
-14 -9 10 5 20 1 30 -13 37 -15 8 -20 7 -25 -6 -6 -15 -8 -15 -19 0 -10 13
-14 13 -24 3z m117 -61 c11 -13 10 -14 -4 -9 -9 3 -16 10 -16 15 0 13 6 11 20
-6z m86 -124 c-4 -5 0 -12 6 -14 8 -4 9 -6 2 -6 -6 -1 -17 6 -24 14 -10 12 -9
15 4 15 10 0 15 -4 12 -9z m52 -31 c12 -20 6 -26 -13 -12 -12 9 -18 32 -7 32
4 0 13 -9 20 -20z"/>
<path d="M1063 3654 c3 -3 -3 -21 -14 -40 -20 -37 -25 -59 -10 -50 10 6 28
-14 26 -29 0 -5 -5 -21 -9 -34 -6 -18 -10 -21 -17 -10 -5 8 -9 19 -9 24 0 6 5
3 10 -5 7 -11 10 -12 10 -2 0 17 -26 43 -34 35 -12 -13 -5 -50 12 -66 21 -19
32 -22 32 -7 0 5 14 39 30 75 33 71 36 85 19 85 -6 0 -9 -6 -6 -13 3 -8 1 -20
-5 -28 -8 -11 -9 -10 -4 4 3 9 1 17 -4 17 -6 0 -10 11 -10 25 0 14 -5 25 -12
25 -6 0 -9 -3 -5 -6z m21 -66 c8 -32 7 -38 -4 -38 -5 0 -6 7 -3 17 4 10 2 14
-5 9 -13 -8 -26 10 -17 24 10 17 22 11 29 -12z"/>
<path d="M5611 3601 c-10 -7 -9 -14 10 -35 30 -34 34 -67 12 -84 -10 -7 -18
-20 -18 -29 0 -9 -7 -18 -15 -20 -13 -4 -13 -3 0 6 13 9 13 11 -2 11 -9 0 -18
5 -20 11 -2 7 -9 5 -17 -5 -11 -14 -9 -17 15 -27 34 -13 79 6 79 34 0 9 6 22
13 29 11 11 12 10 7 -4 -9 -22 8 -24 25 -3 7 8 8 15 3 15 -5 0 -10 7 -10 15 0
8 6 15 14 15 18 0 16 11 -10 42 -24 29 -64 43 -86 29z m65 -25 c12 -12 12 -18
-1 -43 -13 -25 -15 -26 -15 -6 0 12 -4 25 -10 28 -13 8 -13 35 1 35 6 0 17 -6
25 -14z"/>
<path d="M5607 3496 c-4 -10 -1 -13 9 -9 7 3 14 9 14 14 0 14 -17 10 -23 -5z"/>
<path d="M990 3480 c0 -5 1 -12 3 -14 1 -2 -7 -14 -18 -26 -11 -12 -15 -24
-10 -28 10 -7 35 -48 35 -57 0 -3 -7 -5 -15 -5 -9 0 -12 -6 -9 -15 10 -24 19
-18 33 21 11 32 11 37 -7 52 -16 14 -17 19 -6 30 16 15 19 52 4 52 -5 0 -10
-4 -10 -10z"/>
<path d="M1015 3440 c3 -5 11 -10 16 -10 6 0 7 5 4 10 -3 6 -11 10 -16 10 -6
0 -7 -4 -4 -10z"/>
<path d="M5510 3398 c-12 -13 -30 -38 -41 -55 -12 -18 -24 -33 -28 -33 -4 0
-13 -11 -19 -24 -9 -21 -8 -25 10 -29 15 -4 19 -11 15 -26 -3 -12 -2 -21 3
-21 11 0 20 28 14 44 -4 10 2 16 17 18 18 2 26 12 32 41 6 24 15 37 25 37 15
0 15 2 2 10 -19 12 -33 13 -26 2 3 -5 -2 -9 -11 -9 -13 0 -13 3 3 16 19 15 39
51 29 51 -2 0 -14 -10 -25 -22z m0 -62 c0 -11 -19 -15 -25 -6 -3 5 1 10 9 10
9 0 16 -2 16 -4z m-43 -48 c-3 -8 -6 -5 -6 6 -1 11 2 17 5 13 3 -3 4 -12 1
-19z m33 18 c0 -3 -4 -8 -10 -11 -5 -3 -10 -1 -10 4 0 6 5 11 10 11 6 0 10 -2
10 -4z m-50 -36 c0 -5 -2 -10 -4 -10 -3 0 -8 5 -11 10 -3 6 -1 10 4 10 6 0 11
-4 11 -10z"/>
<path d="M945 3379 c-11 -17 1 -21 15 -4 8 9 8 15 2 15 -6 0 -14 -5 -17 -11z"/>
<path d="M914 3305 c-3 -11 -12 -34 -20 -52 -18 -40 -18 -51 2 -49 9 0 19 -6
21 -14 4 -13 3 -13 -7 0 -9 12 -10 9 -6 -15 4 -16 3 -25 -1 -19 -4 6 -16 13
-25 17 -22 8 -42 -46 -28 -74 12 -21 10 -80 -2 -73 -14 9 -9 -13 5 -25 11 -8
16 -3 25 25 6 20 8 42 5 50 -3 8 1 14 11 14 14 0 19 11 15 36 0 4 5 10 11 14
7 4 13 22 15 40 1 18 8 35 14 40 7 4 13 13 15 21 1 8 8 25 15 37 7 13 10 27 6
30 -3 3 -9 -5 -12 -18 l-7 -25 -12 30 c-7 17 -13 23 -14 15 0 -13 -1 -13 -10
0 -7 12 -10 11 -16 -5z m32 -32 c-1 -8 -9 -19 -17 -24 -11 -7 -11 -9 -1 -9 7
0 10 -5 6 -11 -11 -18 -27 7 -20 34 6 25 35 34 32 10z m-48 -148 c2 -15 1 -17
-6 -6 -7 9 -12 10 -16 2 -10 -16 -26 -3 -19 15 8 21 37 13 41 -11z"/>
<path d="M5374 3218 c-20 -41 -49 -93 -55 -98 -10 -8 -40 -70 -34 -70 3 0 -2
-8 -10 -17 -40 -45 -66 -83 -58 -83 5 0 14 5 20 11 7 7 9 3 5 -16 -4 -22 -9
-25 -27 -21 -18 5 -24 1 -29 -19 -4 -14 -11 -25 -16 -25 -6 0 -10 -10 -10 -22
1 -20 4 -17 23 14 21 35 47 51 47 28 0 -5 -4 -10 -10 -10 -5 0 -10 -10 -10
-22 0 -13 -5 -30 -11 -38 -9 -13 -10 -12 -5 2 3 10 1 20 -4 23 -5 3 -12 -6
-16 -20 -3 -14 -10 -25 -16 -25 -5 0 -6 5 -3 10 3 6 2 10 -2 10 -5 0 -13 -8
-19 -17 -5 -10 -21 -36 -34 -57 -17 -29 -20 -38 -9 -34 10 4 16 0 16 -9 0 -8
-11 -19 -24 -24 -29 -11 -39 -34 -24 -53 9 -11 9 -16 0 -21 -6 -4 -15 -2 -19
5 -5 9 -17 -6 -36 -44 -24 -48 -26 -61 -16 -77 16 -25 6 -45 -15 -28 -18 15
-33 -2 -33 -38 0 -13 -4 -23 -10 -23 -5 0 -17 -16 -25 -36 -19 -45 -19 -44 2
-44 15 0 14 -2 -2 -14 -11 -8 -23 -12 -27 -10 -5 3 -8 -2 -8 -10 0 -9 9 -16
20 -16 19 0 28 -28 14 -43 -10 -9 -34 4 -28 15 4 6 1 8 -7 6 -8 -3 -13 -11
-12 -17 2 -6 -2 -11 -7 -11 -6 0 -10 -6 -9 -12 3 -18 -12 -49 -33 -72 -31 -34
-42 -82 -24 -108 18 -25 6 -48 -26 -48 -10 0 -16 -5 -13 -10 4 -6 11 -7 17 -4
6 4 8 2 5 -4 -4 -5 -15 -8 -25 -5 -16 4 -18 -1 -14 -32 3 -26 1 -35 -9 -33 -8
2 -14 -4 -14 -12 0 -8 -4 -21 -8 -27 -5 -8 -4 -13 2 -13 6 0 11 -7 11 -15 0
-8 -4 -15 -10 -15 -5 0 -10 -7 -10 -16 0 -8 -4 -13 -10 -9 -5 3 -6 13 -3 23 5
13 3 15 -7 5 -13 -12 -11 -17 15 -62 13 -23 14 -22 48 50 72 153 71 153 60
156 -16 6 -4 33 13 33 8 0 14 5 14 10 0 6 -4 10 -10 10 -5 0 -10 5 -10 10 0 6
8 10 18 10 13 0 22 12 29 35 6 19 9 35 6 35 -9 0 -32 -28 -27 -33 3 -3 -5 -3
-18 0 -21 6 -22 5 -8 -12 13 -15 13 -17 1 -14 -25 9 -24 28 3 40 29 14 36 31
9 23 -11 -4 -6 5 12 22 17 15 29 29 27 31 -1 2 1 11 6 19 6 10 12 12 15 7 4
-6 -5 -23 -19 -38 -14 -15 -22 -30 -19 -34 11 -10 54 51 75 107 24 63 24 62 5
62 -8 0 -15 4 -15 10 0 5 6 7 14 4 8 -3 23 5 35 17 20 22 25 37 22 70 -3 24
17 69 30 69 15 0 38 31 39 52 0 9 6 18 13 21 9 3 7 10 -6 23 -10 11 -17 15
-16 9 1 -5 1 -17 0 -25 -1 -13 -3 -13 -10 -1 -5 8 -7 20 -4 28 6 17 40 17 46
1 3 -7 16 10 29 39 14 29 30 58 35 65 6 7 20 30 32 51 21 37 21 38 2 32 -11
-3 -22 -2 -25 4 -11 17 5 39 30 44 18 3 22 1 15 -6 -13 -13 -14 -27 -2 -27 5
0 18 22 29 48 12 27 28 55 37 62 8 7 15 17 15 22 0 5 7 16 15 25 9 8 19 28 22
44 3 16 9 29 14 29 5 0 9 7 9 15 0 8 7 15 15 15 8 0 15 7 15 15 0 20 -10 19
-26 -2 -7 -10 -16 -15 -20 -11 -10 11 38 47 55 40 11 -4 13 -1 8 12 -4 10 -7
24 -7 32 0 9 -5 12 -12 8 -7 -4 -8 -3 -4 4 4 6 13 9 21 6 8 -4 12 -11 9 -16
-4 -6 -1 -8 7 -6 8 3 13 12 11 22 -2 9 4 16 13 16 8 0 15 7 15 15 0 8 5 15 12
15 6 0 3 6 -8 14 -15 11 -22 12 -34 3 -13 -10 -13 -10 -1 5 7 10 18 15 23 11
6 -3 9 0 6 8 -8 23 -32 21 -44 -3z m26 -45 c-8 -3 -24 -10 -35 -16 -18 -9 -19
-9 -6 6 7 10 23 17 35 16 14 0 16 -2 6 -6z m-60 -83 c-24 -15 -37 -11 -16 5
11 8 22 12 25 9 3 -3 -1 -9 -9 -14z m-46 -69 c3 -5 -1 -11 -9 -14 -9 -4 -12
-1 -8 9 6 16 10 17 17 5z m-4 -41 c0 -5 -9 -19 -19 -29 -19 -19 -19 -19 -16 7
2 15 4 28 4 30 2 7 31 0 31 -8z m-140 -260 c0 -5 -4 -10 -10 -10 -5 0 -10 5
-10 10 0 6 5 10 10 10 6 0 10 -4 10 -10z m-47 -47 c-7 -2 -14 -17 -14 -31 -1
-17 -3 -21 -6 -9 -2 9 -9 15 -14 12 -14 -9 -11 2 7 19 8 9 21 16 27 15 9 0 8
-2 0 -6z m-42 -81 c-7 -2 -18 1 -23 6 -8 8 -4 9 13 5 13 -4 18 -8 10 -11z
m-58 -67 c-3 -9 -8 -14 -10 -11 -3 3 -2 9 2 15 9 16 15 13 8 -4z m-36 -90 c0
-8 -4 -15 -9 -15 -10 0 -11 14 -1 23 9 10 10 9 10 -8z m-14 -65 c-7 -26 -22
-35 -36 -21 -8 8 -5 16 9 30 23 22 34 19 27 -9z m-63 -150 c0 -5 -7 -10 -16
-10 -8 0 -12 5 -9 10 3 6 10 10 16 10 5 0 9 -4 9 -10z m-134 -325 c-6 -19 -14
-35 -18 -35 -13 0 -9 24 7 46 8 12 11 25 7 29 -4 5 -2 5 4 2 8 -5 8 -16 0 -42z"/>
<path d="M835 3070 c4 -14 2 -20 -8 -20 -8 0 -21 -19 -29 -45 -13 -37 -13 -45
-2 -45 17 0 19 -36 2 -46 -6 -4 -17 1 -25 11 -12 18 -13 18 -13 -3 0 -12 -14
-47 -30 -77 -17 -31 -27 -62 -23 -68 11 -18 12 -37 3 -37 -5 0 -10 6 -12 12
-3 8 -10 4 -17 -10 -12 -22 -11 -23 8 -17 24 7 26 2 10 -26 -9 -17 -13 -18
-27 -7 -13 11 -15 11 -9 -4 3 -10 2 -18 -3 -18 -5 0 -7 -6 -4 -13 2 -7 -6 -19
-18 -26 -21 -11 -48 -53 -48 -75 0 -5 -7 -18 -17 -28 -15 -17 -15 -18 2 -18
13 0 16 -5 11 -24 -3 -14 -1 -28 5 -31 7 -5 5 -15 -5 -30 -9 -14 -11 -25 -5
-27 5 -2 -6 -11 -25 -19 -20 -9 -36 -13 -36 -8 0 5 5 9 10 9 6 0 10 6 10 14 0
21 -40 16 -51 -6 -5 -10 -7 -18 -3 -18 4 0 -5 -10 -20 -21 -32 -25 -33 -72 -3
-77 20 -4 58 25 56 42 -3 24 2 37 11 31 6 -3 10 -2 10 3 0 6 8 13 18 17 14 5
15 4 5 -6 -23 -23 -14 -30 17 -14 34 17 34 19 20 46 -9 15 -7 21 7 26 10 4 21
11 24 16 4 5 15 0 25 -11 19 -19 19 -19 64 1 68 31 113 47 133 47 9 0 17 4 17
10 0 5 7 7 16 3 11 -4 22 1 31 13 11 15 16 16 22 6 6 -10 18 -11 57 -2 27 7
56 14 64 18 16 6 27 9 46 11 17 2 14 51 -3 51 -8 0 -11 -4 -8 -10 3 -5 1 -10
-6 -10 -7 0 -9 -3 -6 -7 5 -4 -35 -33 -47 -33 -1 0 -3 10 -3 22 -1 13 1 18 5
12 5 -7 13 -5 26 7 19 19 19 19 -8 19 -14 0 -29 -7 -32 -15 -7 -16 -34 -21
-34 -6 0 5 -10 7 -22 4 -84 -19 -98 -25 -99 -41 0 -10 -3 -12 -6 -4 -2 6 -9
12 -15 12 -6 0 -8 -7 -4 -15 4 -12 2 -13 -14 -2 -17 10 -32 8 -88 -12 -37 -13
-82 -35 -99 -48 -26 -19 -33 -21 -33 -9 0 9 -4 16 -10 16 -5 0 -10 5 -10 11 0
6 6 9 13 6 8 -3 21 10 33 31 10 21 21 39 24 42 3 3 13 22 23 43 13 30 15 43 6
59 -10 18 -9 20 9 16 16 -4 24 4 41 38 12 24 20 48 16 53 -3 5 -1 12 5 16 14
9 50 90 50 114 0 12 5 21 11 21 7 0 9 10 7 25 -4 17 -1 25 9 25 10 0 13 6 9
16 -3 9 -6 18 -6 20 0 2 -7 4 -15 4 -22 0 -18 27 5 33 14 3 20 14 20 31 0 14
-5 26 -11 26 -6 0 -8 -9 -4 -20z m-35 -177 c0 -5 -5 -15 -10 -23 -9 -13 -11
-13 -19 0 -5 8 -7 18 -5 22 6 10 34 11 34 1z m-52 -98 c-11 -48 -11 -49 -20
-22 -8 21 -6 34 7 53 23 35 26 28 13 -31z m-25 -90 c-3 -9 -8 -14 -10 -11 -3
3 -2 9 2 15 9 16 15 13 8 -4z m-43 -83 c0 -16 -23 -30 -39 -24 -14 5 -14 4 -2
-11 12 -15 11 -17 -2 -17 -11 0 -15 -9 -15 -30 1 -37 -8 -48 -25 -31 -9 10 -9
15 -1 18 7 2 10 12 7 22 -5 20 42 81 63 81 8 0 14 -4 14 -8z m316 -87 c18 -9
23 -15 12 -15 -9 0 -20 5 -23 10 -3 6 -11 10 -17 10 -7 0 -7 -5 1 -14 17 -20
-9 -28 -33 -10 -18 13 -18 14 5 23 13 5 25 10 25 10 1 1 15 -6 30 -14z m-86
-20 c0 -8 -7 -15 -15 -15 -13 0 -14 3 -3 15 16 18 18 18 18 0z m-82 -27 c-6
-18 -25 -20 -31 -3 -5 10 0 15 14 15 12 0 19 -5 17 -12z m-43 -9 c9 -14 -4
-27 -13 -13 -5 7 -15 6 -30 -2 -17 -8 -20 -13 -10 -17 7 -3 1 -4 -14 -3 -30 1
-34 19 -5 21 10 1 23 7 29 13 15 15 35 15 43 1z m-95 -49 c0 -5 -4 -10 -10
-10 -5 0 -10 5 -10 10 0 6 5 10 10 10 6 0 10 -4 10 -10z m-193 -111 c-11 -27
-14 -30 -20 -16 -4 10 -3 16 2 13 5 -3 12 6 15 20 4 15 9 24 12 21 3 -2 -1
-20 -9 -38z"/>
<path d="M1470 2620 c0 -5 9 -10 21 -10 11 0 17 5 14 10 -3 6 -13 10 -21 10
-8 0 -14 -4 -14 -10z"/>
<path d="M1556 2620 c-13 -4 -16 -9 -8 -14 7 -4 19 -3 28 2 21 12 5 22 -20 12z"/>
<path d="M1330 2600 c-10 -18 -7 -20 22 -21 l33 -1 -33 -8 c-49 -11 -49 -18 0
-16 39 1 43 3 40 26 -4 41 -44 54 -62 20z"/>
<path d="M1420 2610 c0 -5 5 -10 10 -10 6 0 10 5 10 10 0 6 -4 10 -10 10 -5 0
-10 -4 -10 -10z"/>
<path d="M1601 2606 c-14 -17 -62 -27 -76 -16 -7 6 -16 1 -23 -11 -7 -10 -8
-19 -3 -19 5 0 12 6 14 13 4 8 8 9 14 1 4 -6 43 -14 85 -17 42 -4 82 -8 88 -9
6 -2 18 12 26 31 l14 34 -35 -6 c-19 -3 -35 -2 -35 4 0 14 -56 11 -69 -5z m99
-16 c5 8 10 11 10 5 0 -28 -57 -45 -72 -21 -19 28 -8 37 22 19 27 -16 32 -16
40 -3z m-90 -10 c-8 -5 -19 -10 -25 -10 -5 0 -3 5 5 10 8 5 20 10 25 10 6 0 3
-5 -5 -10z"/>
<path d="M1270 2595 c0 -8 4 -15 10 -15 5 0 7 -7 4 -15 -4 -8 -10 -12 -15 -9
-5 3 -9 0 -9 -6 0 -7 7 -9 16 -6 9 3 18 6 20 6 2 0 4 14 4 30 0 20 -5 30 -15
30 -8 0 -15 -7 -15 -15z"/>
<path d="M1180 2586 c0 -8 5 -18 10 -21 6 -3 10 -1 10 4 0 6 7 11 15 11 14 0
19 -12 16 -32 0 -5 4 -8 9 -8 11 0 13 20 4 44 -8 21 -64 22 -64 2z"/>
<path d="M1760 2585 c-7 -8 -16 -12 -21 -9 -5 3 -9 1 -9 -5 0 -5 8 -12 18 -14
14 -4 14 -5 -3 -6 -11 -1 12 -11 50 -21 39 -11 102 -28 140 -39 60 -16 72 -17
86 -5 20 18 39 18 39 0 0 -23 16 -27 31 -9 12 15 12 16 -6 10 l-20 -7 20 16
c14 12 15 15 4 11 -9 -3 -20 -2 -25 3 -16 16 -137 51 -153 45 -8 -3 -12 -3 -8
2 5 4 -20 15 -55 25 -76 22 -73 22 -88 3z m86 -16 c4 -8 -3 -9 -26 -4 -23 5
-30 4 -26 -4 4 -6 2 -11 -3 -11 -12 0 -14 13 -4 23 10 11 51 8 59 -4z m54 -29
c19 -14 37 -19 53 -15 26 7 43 -7 31 -27 -5 -7 -11 -5 -21 7 -7 11 -13 14 -13
8 0 -7 -12 -8 -32 -3 -18 4 -32 12 -30 18 1 7 -2 12 -8 12 -5 0 -10 -5 -10
-11 0 -8 -5 -8 -15 1 -8 7 -15 9 -15 6 0 -4 -5 -4 -12 0 -8 5 -6 10 8 15 29
11 34 11 64 -11z"/>
<path d="M1411 2574 c0 -11 3 -14 6 -6 3 7 2 16 -1 19 -3 4 -6 -2 -5 -13z"/>
<path d="M1435 2580 c-8 -13 -1 -24 14 -19 6 3 7 10 2 18 -6 10 -10 10 -16 1z"/>
<path d="M1144 2562 c-19 -12 8 -30 31 -21 18 7 18 8 -3 8 -13 1 -20 5 -17 11
7 12 4 12 -11 2z"/>
<path d="M540 2482 c0 -5 7 -13 16 -16 10 -4 14 -1 12 6 -5 15 -28 23 -28 10z"/>
<path d="M2112 2475 c-28 -20 -29 -45 -1 -45 15 0 19 5 15 15 -8 21 19 30 47
17 22 -10 22 -10 -5 -22 -15 -7 -25 -17 -22 -21 3 -5 15 -4 26 2 18 9 20 9 15
-4 -4 -12 4 -19 31 -28 27 -9 37 -9 40 0 6 18 21 13 16 -6 -6 -21 54 -53 65
-35 3 5 15 12 26 14 17 3 19 -2 17 -31 -3 -22 0 -31 7 -26 7 3 10 12 9 19 -3
12 3 16 23 16 5 0 7 -4 4 -10 -3 -5 2 -10 11 -10 16 0 16 -1 -1 -14 -11 -8
-24 -12 -30 -9 -5 3 -2 -3 9 -13 13 -14 20 -15 23 -6 3 6 9 12 15 12 6 0 8 -6
5 -14 -7 -18 21 -58 35 -50 6 4 8 2 5 -3 -8 -12 20 -39 30 -29 12 12 11 36 -1
36 -7 0 -23 9 -36 20 -17 15 -19 20 -7 20 8 0 17 -5 19 -12 2 -6 12 -12 22
-14 13 -2 12 3 -8 23 -14 14 -26 29 -26 33 0 4 -27 26 -60 49 -33 23 -60 37
-60 31 0 -8 -9 -10 -25 -6 -19 5 -23 3 -19 -8 5 -13 2 -13 -20 -3 l-26 12 37
12 c37 11 34 14 -17 18 -14 1 -34 5 -45 10 -14 5 -16 4 -6 -3 10 -7 10 -11 1
-17 -15 -9 -24 0 -16 20 4 11 13 14 33 9 45 -11 15 11 -47 34 -30 10 -62 22
-70 26 -8 3 -25 -1 -38 -9z m112 -34 c3 -5 -1 -14 -9 -21 -13 -10 -15 -9 -15
9 0 21 14 28 24 12z"/>
<path d="M2030 2460 c0 -6 7 -10 15 -10 8 0 15 2 15 4 0 2 -7 6 -15 10 -8 3
-15 1 -15 -4z"/>
<path d="M522 2443 c-16 -29 -15 -42 2 -20 13 16 14 16 20 -8 7 -26 22 -35 23
-12 0 6 4 21 8 31 7 16 5 18 -13 14 -12 -3 -23 -1 -25 6 -2 6 -9 1 -15 -11z
m35 -25 c-3 -8 -6 -5 -6 6 -1 11 2 17 5 13 3 -3 4 -12 1 -19z"/>
<path d="M2555 2223 c17 -61 12 -71 -23 -49 -11 7 -12 4 -3 -13 7 -11 15 -21
20 -21 5 0 21 -24 37 -54 24 -47 32 -54 56 -54 15 1 28 5 28 9 0 4 8 9 17 11
12 2 17 13 18 33 0 20 5 30 15 30 8 0 16 -6 16 -12 1 -7 2 -17 3 -23 1 -11 70
21 71 34 0 4 -11 1 -25 -8 -22 -14 -25 -14 -25 -1 0 23 -44 29 -74 10 -14 -9
-30 -14 -36 -10 -6 4 -16 2 -23 -3 -22 -19 -51 13 -44 48 5 21 1 40 -14 63
-13 21 -18 24 -14 10z m95 -144 c0 -8 5 -7 15 1 22 18 26 9 6 -12 -16 -16 -17
-16 -29 2 -7 12 -8 20 -2 20 5 0 10 -5 10 -11z m-14 -37 c-4 -3 -11 0 -16 8
-15 24 -11 33 6 15 9 -9 13 -19 10 -23z"/>
<path d="M2898 2193 c-25 -4 -61 -33 -41 -33 5 0 10 -7 10 -15 0 -8 -4 -15 -9
-15 -4 0 -8 4 -8 10 0 5 -7 7 -15 4 -10 -4 -15 0 -15 11 0 12 -5 15 -16 11 -9
-3 -27 -9 -40 -12 -13 -3 -24 -10 -24 -14 0 -12 43 -8 53 5 6 7 10 6 13 -2 8
-19 74 -28 85 -12 13 20 11 31 -3 23 -10 -5 -10 -3 0 7 10 11 14 11 21 1 4 -7
15 -10 24 -6 11 4 19 0 23 -11 5 -12 13 -15 33 -9 14 4 34 6 44 6 9 0 17 5 17
11 0 22 54 36 75 21 11 -8 14 -15 7 -15 -28 -3 -31 -4 -41 -14 -8 -8 4 -11 37
-12 26 -1 55 -4 65 -8 10 -4 17 -3 17 4 0 15 27 14 33 -1 4 -10 8 -9 16 2 6 8
11 20 11 25 0 6 -3 6 -8 -1 -18 -27 -120 2 -109 31 3 7 -15 12 -55 13 -39 2
-57 -1 -53 -8 3 -5 4 -10 1 -10 -2 0 -13 -3 -23 -7 -16 -6 -16 -5 -4 10 10 13
10 17 1 17 -6 0 -14 -9 -17 -20 -6 -22 -11 -24 -33 -10 -11 7 -11 10 -2 10 7
0 10 5 7 10 -6 10 -26 11 -77 3z m52 -13 c0 -5 -5 -10 -11 -10 -5 0 -7 5 -4
10 3 6 8 10 11 10 2 0 4 -4 4 -10z"/>
<path d="M3180 2174 c0 -11 4 -15 8 -9 10 14 55 18 46 4 -4 -6 1 -9 12 -8 11
2 25 0 32 -4 7 -5 12 -3 12 4 0 7 3 10 6 7 3 -4 1 -16 -6 -27 -9 -17 -8 -21 5
-21 8 0 14 6 13 13 -2 6 4 12 12 12 8 0 14 -8 14 -17 -1 -14 2 -15 17 -8 10 6
21 15 24 20 9 14 25 2 19 -14 -3 -9 5 -13 26 -14 30 -1 43 22 18 31 -10 3 -10
7 1 20 12 15 9 17 -37 17 -45 0 -50 -2 -47 -19 3 -14 -1 -18 -11 -14 -8 3 -13
12 -10 19 3 8 4 14 3 14 -1 1 -37 3 -79 7 -72 5 -78 4 -78 -13z"/>
<path d="M3465 2160 c3 -5 8 -10 11 -10 2 0 4 5 4 10 0 6 -5 10 -11 10 -5 0
-7 -4 -4 -10z"/>
<path d="M3503 2151 c-4 -16 -11 -20 -24 -16 -11 4 -19 2 -19 -3 0 -5 9 -12
20 -15 11 -3 20 -1 20 3 0 5 7 15 15 24 10 10 12 17 4 21 -6 4 -13 -2 -16 -14z"/>
<path d="M3545 2138 c10 -33 18 -39 64 -45 40 -5 47 0 42 30 0 4 5 7 13 7 18
0 27 -24 15 -39 -6 -8 -5 -8 3 -1 18 15 38 12 38 -5 0 -22 21 -18 27 6 4 12
11 18 20 15 8 -3 20 -6 26 -6 6 0 1 -7 -12 -16 -18 -13 -20 -18 -10 -25 21
-13 32 -11 25 6 -5 14 5 19 31 16 7 -1 10 5 7 13 -5 13 -31 21 -189 56 -45 10
-53 7 -36 -14 8 -10 9 -16 1 -21 -11 -7 -40 17 -40 34 0 6 -7 11 -16 11 -11 0
-14 -6 -9 -22z"/>
<path d="M3516 2125 c-3 -9 0 -15 8 -15 7 0 13 7 13 15 0 8 -4 15 -8 15 -4 0
-9 -7 -13 -15z"/>
<path d="M3862 2076 c7 -8 18 -11 23 -8 6 2 4 -1 -3 -9 -11 -12 -14 -12 -21 0
-7 10 -13 11 -31 1 -12 -6 -19 -14 -16 -17 3 -3 12 0 21 7 12 10 15 10 15 -4
0 -9 7 -16 15 -16 8 0 15 5 15 10 0 6 7 10 15 10 8 0 15 6 15 13 0 8 4 7 10
-3 5 -8 10 -19 10 -25 0 -5 -5 -3 -10 5 -8 12 -10 11 -10 -6 0 -14 8 -24 22
-27 24 -7 41 3 21 10 -21 8 -15 18 12 19 14 1 22 -2 19 -7 -3 -5 -1 -9 5 -9
13 0 25 19 17 27 -3 4 -22 6 -41 5 -20 -1 -33 3 -30 7 5 9 -46 31 -72 31 -11
0 -11 -3 -1 -14z"/>
<path d="M3995 2010 c-3 -5 0 -10 7 -11 7 0 4 -4 -6 -8 -18 -7 -18 -8 -2 -14
10 -4 19 -1 22 8 5 11 9 11 19 2 7 -6 10 -18 8 -24 -3 -7 2 -13 11 -13 9 0 16
7 16 15 0 9 7 18 16 22 15 5 14 7 -1 16 -12 6 -20 5 -25 -3 -6 -10 -12 -10
-25 3 -19 19 -31 21 -40 7z"/>
<path d="M4133 1963 c5 -22 -14 -48 -26 -36 -4 3 -7 2 -7 -3 0 -11 40 -37 41
-27 0 5 2 18 5 31 2 13 -1 31 -7 40 -9 15 -10 14 -6 -5z"/>
<path d="M4160 1934 c0 -10 28 -34 41 -34 10 0 10 -3 0 -12 -11 -10 -14 -10
-18 0 -6 17 -33 15 -33 -3 0 -9 6 -12 18 -8 9 3 14 3 10 -2 -9 -9 9 -35 24
-35 6 0 6 6 -1 14 -9 10 -8 15 3 19 17 7 30 -8 21 -22 -3 -5 -1 -12 4 -16 6
-3 8 -12 4 -20 -3 -8 0 -15 6 -15 9 0 16 28 12 52 0 4 7 5 17 2 11 -4 8 2 -9
18 -62 56 -99 79 -99 62z"/>
<path d="M4274 1813 c4 -9 2 -19 -4 -23 -7 -4 -5 -12 6 -21 16 -12 17 -12 11
4 -6 16 7 23 36 18 4 0 7 4 7 9 0 6 -8 10 -17 8 -10 -2 -17 3 -15 10 1 6 -5
12 -14 12 -11 0 -14 -5 -10 -17z"/>
<path d="M4323 1783 c-16 -6 -17 -33 -2 -33 6 0 9 -9 6 -20 -3 -13 0 -20 9
-20 8 0 14 -4 14 -10 0 -5 10 -21 21 -35 18 -19 26 -22 41 -14 14 7 23 7 34
-2 21 -17 17 -27 -11 -24 -14 2 -25 -1 -25 -7 0 -6 6 -8 14 -5 19 8 66 -14 66
-30 0 -16 -2 -16 -34 -3 l-25 9 21 -34 c20 -35 38 -45 38 -22 0 8 4 7 10 -3 8
-12 10 -12 10 5 0 17 2 17 10 5 7 -11 5 -18 -5 -26 -17 -13 -18 -23 -6 -43 7
-11 13 -10 35 4 29 19 34 35 11 35 -8 0 -15 5 -15 10 0 7 6 7 19 1 15 -9 22
-6 33 12 23 35 27 64 11 86 -13 19 -12 21 6 21 11 0 22 -8 24 -17 3 -11 5 -8
6 9 1 16 9 32 21 38 36 19 18 98 -22 100 -17 0 -7 -19 12 -25 11 -3 20 -11 20
-16 0 -6 -5 -7 -11 -3 -7 4 -9 0 -5 -14 4 -11 2 -23 -3 -27 -7 -3 -8 0 -5 10
4 10 1 14 -7 12 -8 -2 -11 -2 -6 0 4 3 4 9 1 14 -7 12 -34 -8 -34 -26 0 -7
-12 -36 -26 -63 -24 -47 -26 -72 -3 -72 5 0 7 11 3 25 -5 19 -2 25 10 25 9 0
16 -4 16 -10 0 -7 -18 -55 -26 -68 -4 -7 -73 34 -71 43 1 6 -10 31 -25 56 -25
42 -31 47 -62 45 -19 -1 -32 2 -30 5 8 14 -8 37 -29 43 -12 3 -18 8 -14 12 4
4 1 14 -6 23 -11 14 -10 15 8 1 11 -8 28 -24 38 -34 11 -12 17 -14 17 -6 0 11
-55 72 -62 69 -2 0 -9 -3 -15 -6z m212 -293 c-3 -5 -11 -10 -16 -10 -6 0 -7 5
-4 10 3 6 11 10 16 10 6 0 7 -4 4 -10z"/>
</g>
</svg>
